PathFileType	4	(X/Y/Z)	/Users/niels/Desktop/University/Third Semester/Perception and Action/Exam/Gymnastics Motion Tracking/Code for Gym Tracking/Analyzed Data/Webcam_Backflip/id13_1_baseline_Sports2D/id13_1_baseline_Sports2D_px_person00.trc
DataRate	CameraRate	NumFrames	NumMarkers	Units	OrigDataRate	OrigDataStartFrame	OrigNumFrames
29.702970297029704	29.702970297029704	12	22	m	29.702970297029704	50	101
Frame#	Time	Hip			RHip			RKnee			RAnkle			RBigToe			RSmallToe			RHeel			LHip			LKnee			LAnkle			LBigToe			LSmallToe			LHeel			Neck			Head			Nose			RShoulder			RElbow			RWrist			LShoulder			LElbow			LWrist		
		X1	Y1	Z1	X2	Y2	Z2	X3	Y3	Z3	X4	Y4	Z4	X5	Y5	Z5	X6	Y6	Z6	X7	Y7	Z7	X8	Y8	Z8	X9	Y9	Z9	X10	Y10	Z10	X11	Y11	Z11	X12	Y12	Z12	X13	Y13	Z13	X14	Y14	Z14	X15	Y15	Z15	X16	Y16	Z16	X17	Y17	Z17	X18	Y18	Z18	X19	Y19	Z19	X20	Y20	Z20	X21	Y21	Z21	X22	Y22	Z22
50	1.6833333333333331	0.9757368731261853	-0.6334628867171018	0.0	0.9289862782670952	-0.6453441440088067	0.0	0.9273016046530709	-0.8540044170361254	0.0	0.9245423321721777	-1.0347935760700095	0.0	0.9237273716667691	-1.0842537114779467	0.0	0.8937282393722092	-1.0760625028390165	0.0	0.9253204746085792	-1.054717111858537	0.0	1.0202069689055073	-0.6414240211780892	0.0	1.03048954706989	-0.8517629139224799	0.0	1.0400347522505622	-1.0367818896739904	0.0	1.036157915444425	-1.0821170549243604	0.0	1.0708821830217086	-1.075232630594766	0.0	1.0347442311418438	-1.0547043892263568	0.0	0.9637259360072713	-0.35289206682388363	0.0	0.961539480924099	-0.22122567998905568	0.0	0.9660364800551408	-0.2931248811378816	0.0	0.8755333100533949	-0.394348525634443	0.0	0.7508549014399388	-0.43338388221895036	0.0	0.6103323785662457	-0.4314674226584691	0.0	1.0498920137797414	-0.38393577719683397	0.0	1.1833961413620162	-0.4031069579959966	0.0	1.3236283613778757	-0.39001575055205673	0.0
51	1.7169999999999999	0.9748253071716313	-0.6333284494906273	0.0	0.9285189140650641	-0.6446989807049196	0.0	0.9275434843983879	-0.8533115610997566	0.0	0.9242899711049979	-1.03491426262459	0.0	0.9244874940223092	-1.0831890962478783	0.0	0.8944456825323237	-1.075293440335192	0.0	0.9251589217968024	-1.0548458701069792	0.0	1.0196434504842349	-0.6408811310848614	0.0	1.0302273744224677	-0.8511150351016982	0.0	1.040177684249765	-1.0363281156948494	0.0	1.03626620690873	-1.082331238813467	0.0	1.0706242399968446	-1.0755322199327848	0.0	1.0352348925104882	-1.0542269374902526	0.0	0.9632610512010544	-0.3526369243534347	0.0	0.9607572186832046	-0.2216900244869098	0.0	0.9652690721675866	-0.2934905736245649	0.0	0.8767046862985934	-0.3955630427829353	0.0	0.7568564153975038	-0.44888880074289034	0.0	0.6177975300218093	-0.4634779203167902	0.0	1.0490380537713448	-0.38539125113693623	0.0	1.1802777447938348	-0.4175866281980544	0.0	1.3207231237829282	-0.42276870681585266	0.0
52	1.7506666666666666	0.9738657764555618	-0.6335059296750396	0.0	0.9280283618202722	-0.6438687877473834	0.0	0.9277975847571115	-0.8523016652124437	0.0	0.9241560199605633	-1.0352383933076141	0.0	0.9258123407248418	-1.082047267533096	0.0	0.8957642088222771	-1.0748120227626123	0.0	0.925303372738228	-1.054595923910839	0.0	1.0190377091339846	-0.6401595946225418	0.0	1.0301017852156424	-0.8504476783059851	0.0	1.0402775616692703	-1.0357715212949592	0.0	1.0362013982648879	-1.0824281658912203	0.0	1.0702469918704862	-1.0757875418923486	0.0	1.035846997511118	-1.0535102083987975	0.0	0.962691381515727	-0.3520949461639445	0.0	0.960326027416253	-0.22198322708666313	0.0	0.964664397218868	-0.29393151665428413	0.0	0.877477895008538	-0.3963090068650184	0.0	0.7648833065475102	-0.4642955170324848	0.0	0.6293718536724455	-0.4961688378641816	0.0	1.048073842626016	-0.38639954092987827	0.0	1.1751464375885117	-0.43245616910929274	0.0	1.3133323119196825	-0.4551336723013476	0.0
53	1.784333333333333	0.9729406830621583	-0.6340071737064543	0.0	0.9274519713951604	-0.6428940938608179	0.0	0.9279930206844554	-0.8510080645484888	0.0	0.9240945628277211	-1.035756603116998	0.0	0.9272259996832269	-1.0811497760099111	0.0	0.8972593289605955	-1.074800382221954	0.0	0.9258327366313875	-1.054032416014448	0.0	1.018459728430312	-0.6393102903350522	0.0	1.0300633936105248	-0.8497736474133912	0.0	1.04038893336758	-1.035318254860224	0.0	1.0356363516883988	-1.0821996352829824	0.0	1.0695564810923686	-1.0759279386653573	0.0	1.0366911289605458	-1.0529468746483088	0.0	0.9620847352145847	-0.35139839975001724	0.0	0.9600806064376254	-0.22204367388226803	0.0	0.9641959962984128	-0.29430810236621485	0.0	0.8778415690476095	-0.3966050883445514	0.0	0.77478929835125	-0.4790153867547537	0.0	0.6448386085936418	-0.5285205852174604	0.0	1.047074377817762	-0.3868888551754098	0.0	1.1678494150783805	-0.447232160236894	0.0	1.3015429694855336	-0.48639939395540904	0.0
54	1.8179999999999998	0.9721484035558607	-0.6346793278711188	0.0	0.9267842733005609	-0.6418298847381283	0.0	0.9281543923579002	-0.8495545328911911	0.0	0.9241179128086753	-1.0362259905355906	0.0	0.9284291335536217	-1.0805917047309073	0.0	0.8986365129598054	-1.0751727719109512	0.0	0.9266925443869091	-1.0531708337709629	0.0	1.0180393610319534	-0.6383833150084032	0.0	1.030036748038011	-0.8490405722039783	0.0	1.0405043857296081	-1.034988088941662	0.0	1.0345282686176693	-1.0816933010025036	0.0	1.0684201345508135	-1.0759988077167424	0.0	1.0376581951914179	-1.052615558493319	0.0	0.9614981595640921	-0.35060192097938564	0.0	0.9598645038061562	-0.2218699944870773	0.0	0.963796884180416	-0.29455234659584	0.0	0.8779009745532999	-0.39657864244446234	0.0	0.7861316225507723	-0.49245149738555033	0.0	0.6637755369563927	-0.5592670805320501	0.0	1.0460176959128964	-0.386899291791453	0.0	1.1586355770060908	-0.46136094311040265	0.0	1.2857955000610135	-0.5160089042291598	0.0
55	1.8516666666666666	0.9716051493883855	-0.6352481467329492	0.0	0.9261352452634878	-0.6407722981673901	0.0	0.9283563965102877	-0.8482828560218681	0.0	0.9242869837299298	-1.036441547672424	0.0	0.9293008396492344	-1.0803903158216615	0.0	0.8997207081823334	-1.0757829066166806	0.0	0.9277370117987446	-1.0520951931887004	0.0	1.0178740279306604	-0.6374574847228722	0.0	1.0299561132743975	-0.8482457468040702	0.0	1.0405683536114394	-1.03475541086616	0.0	1.033133655833645	-1.0812034130876675	0.0	1.0668604018058228	-1.076128111997275	0.0	1.0384564911768863	-1.0523958397053361	0.0	0.9610007502211578	-0.3496994211097763	0.0	0.9595986278707405	-0.2214765712570136	0.0	0.9633915468064816	-0.2946969037780506	0.0	0.8778124688190678	-0.3964894092384877	0.0	0.7983030919700207	-0.5041641233394099	0.0	0.6855835923549973	-0.5871889375338954	0.0	1.0449117813362327	-0.38659643447601055	0.0	1.1480711875690188	-0.47425496982660953	0.0	1.2668431746075577	-0.5433279633504549	0.0
56	1.885333333333333	0.9713889295339365	-0.6354863275608333	0.0	0.9256758887155937	-0.639840216249976	0.0	0.9286634614213489	-0.8475387409693547	0.0	0.9246075903591947	-1.0364410661104513	0.0	0.9299785088802173	-1.0804889098308732	0.0	0.9005564295608052	-1.0765330184809696	0.0	0.9287416088729026	-1.050987419376231	0.0	1.017991066962459	-0.6366357158679549	0.0	1.0298199982822398	-0.8474698693584638	0.0	1.040553968781669	-1.0346545068831503	0.0	1.031823678358661	-1.0809909081588485	0.0	1.0650761439302165	-1.0763694305417222	0.0	1.038858669062213	-1.0521613021038054	0.0	0.9606630743740608	-0.34870975418294303	0.0	0.9593109467725455	-0.2209341668136818	0.0	0.9629529460197426	-0.2948008441146007	0.0	0.8777377388356066	-0.3965942802752553	0.0	0.8107192607535479	-0.5139434557003695	0.0	0.7094711457584971	-0.611284648085906	0.0	1.0438624389011577	-0.38624922154938857	0.0	1.1367854712090235	-0.48539349032100654	0.0	1.2456175089118608	-0.5675953005490432	0.0
57	1.9189999999999998	0.971479109655068	-0.6353500788655485	0.0	0.9255266161282579	-0.6391168212519782	0.0	0.9291005868399901	-0.8473597299761215	0.0	0.9249883951396155	-1.0363374350824839	0.0	0.9307282594345347	-1.0806303280966494	0.0	0.9013491245204261	-1.0771942415943498	0.0	0.9294689143277522	-1.0499774516637657	0.0	1.0183569726165582	-0.636011119516044	0.0	1.0296954548137276	-0.8468053331491951	0.0	1.0404711122945765	-1.034668832106527	0.0	1.0309106613037602	-1.0809868576108912	0.0	1.0633744849724582	-1.0765728883701706	0.0	1.0388519464710102	-1.051794226704477	0.0	0.9605042363827192	-0.3477378223711745	0.0	0.9590732797516155	-0.22039167525736056	0.0	0.9625178162755906	-0.29488727025010353	0.0	0.877769866306446	-0.3970121194801866	0.0	0.8228368199521868	-0.5217958086019049	0.0	0.7344203235157754	-0.6308430767606211	0.0	1.0429888313687459	-0.38606972699611464	0.0	1.125276270221245	-0.4944748930899752	0.0	1.2232057113034163	-0.5881391442290097	0.0
58	1.9526666666666666	0.9717635201976891	-0.6350076233388615	0.0	0.9256828250695379	-0.6386516817590111	0.0	0.9296433788316787	-0.8475490366986127	0.0	0.9253342940051816	-1.03612803972987	0.0	0.931616993738934	-1.0804758218245256	0.0	0.9021920341517312	-1.0773750080647504	0.0	0.9298195933889379	-1.0490335332422809	0.0	1.0188686032255778	-0.6356739993159274	0.0	1.0296694983533472	-0.8463533373217609	0.0	1.0403501304624838	-1.0346684315423202	0.0	1.030518301723432	-1.0808480291595368	0.0	1.0619905464181028	-1.076462463974073	0.0	1.03859436724449	-1.051159687344659	0.0	0.9604681796806868	-0.3469412799613925	0.0	0.9589158683036446	-0.22002290304175579	0.0	0.9621439310559813	-0.2950069676399274	0.0	0.8778591000071858	-0.39770443628783175	0.0	0.8341461757545628	-0.527850872403092	0.0	0.7592317442273496	-0.6455868347919062	0.0	1.042373828524079	-0.3861017398897169	0.0	1.1139459371159892	-0.5015611640010433	0.0	1.2007929977194012	-0.6046162442252968	0.0
59	1.9863333333333333	0.9721023365493403	-0.6347169837098704	0.0	0.9260363073927699	-0.6384675965608321	0.0	0.9302107269854334	-0.8479235690185413	0.0	0.92560728094266	-1.035720720156889	0.0	0.9325012952027021	-1.0798558391300712	0.0	0.9030216194278277	-1.0768153497985757	0.0	0.9298797270761834	-1.0480239285448982	0.0	1.0193628871139921	-0.635669731613467	0.0	1.0297931271168745	-0.8462032432946093	0.0	1.0402358140344354	-1.03448710359042	0.0	1.030543250899199	-1.0802778050241162	0.0	1.0609592765220526	-1.0758418584066025	0.0	1.038263342848108	-1.0501584091186738	0.0	0.9604742215883254	-0.3464199411058392	0.0	0.9588462590993666	-0.21991154159460613	0.0	0.9618749315956211	-0.29524035785847597	0.0	0.8778621345904624	-0.39849819745530946	0.0	0.8442448601444515	-0.5322640333542445	0.0	0.7826842600387753	-0.6557519294735071	0.0	1.042080905335227	-0.3862510594292888	0.0	1.103219486761936	-0.507004107076963	0.0	1.179512628345527	-0.6170707000987845	0.0
60	2.02	0.9723859785308525	-0.6346443756730002	0.0	0.9264604790752495	-0.6385379054440203	0.0	0.9306877404520356	-0.8483219368461682	0.0	0.9257988885368363	-1.0350556053284545	0.0	0.9332582183394719	-1.07880227549769	0.0	0.9037723498033245	-1.0755820961859512	0.0	0.9298197671481592	-1.046843848765892	0.0	1.0196955732099104	-0.6359364707434961	0.0	1.0300355462976747	-0.8463043135168239	0.0	1.0401780222873855	-1.0340303330872855	0.0	1.0307539524268625	-1.079251307138876	0.0	1.060186219922549	-1.074746708430015	0.0	1.0379638717090667	-1.0487956423751774	0.0	0.9604818330924992	-0.34616421555769183	0.0	0.9588708498451141	-0.21998265975943412	0.0	0.9617418686310584	-0.29557160944169997	0.0	0.87770418989343	-0.39916214887168167	0.0	0.8528800116750478	-0.5351987768493729	0.0	0.8037470379957714	-0.6619400819800371	0.0	1.0421183297585916	-0.38640156569119405	0.0	1.093537936773111	-0.5111791908943585	0.0	1.1603357874405738	-0.6258088294237572	0.0
61	2.0536666666666665	0.9725447325868621	-0.634818820540817	0.0	0.9268522580711547	-0.6388240470738443	0.0	0.9309781639643174	-0.848589117079649	0.0	0.9259150141484885	-1.0342347218914318	0.0	0.9338649241814683	-1.0775183590730937	0.0	0.9044095188186123	-1.0740075610571962	0.0	0.9297918320388505	-1.045521205990732	0.0	1.0198199200874685	-0.6363815286115692	0.0	1.0302907853560546	-0.8464861776654694	0.0	1.0402065482553247	-1.033378149561716	0.0	1.0309591378192955	-1.0780423456366401	0.0	1.0596155970543015	-1.073476577718443	0.0	1.037721604042859	-1.0472337030978112	0.0	0.9604926950983641	-0.346098002762204	0.0	0.9589619683837824	-0.22009999266708707	0.0	0.9617655939259818	-0.29588719627351906	0.0	0.877467288630964	-0.39954866716250015	0.0	0.8599174086208481	-0.5368341700264443	0.0	0.8216958191279482	-0.6649005236440345	0.0	1.0423817630748686	-0.38652441847809377	0.0	1.0852769066824155	-0.5143412016019988	0.0	1.1440157389469632	-0.6313016377760393	0.0
